<svg xmlns="http://www.w3.org/2000/svg">
  <defs>
    <symbol id="icon-fast_food" viewBox="-5.0 -10.0 110.0 135.0">
         <path d="m87.426 76.023h-1.9922v-38.359c0-0.070312-0.007813-0.14062-0.027344-0.20703l-5.8125-21.93c-0.003906-0.019532-0.019531-0.039063-0.027344-0.058594-0.015625-0.039062-0.03125-0.074219-0.050781-0.10938-0.027344-0.050781-0.058594-0.097656-0.097656-0.14453-0.027344-0.03125-0.054688-0.058594-0.082031-0.085938-0.042969-0.039062-0.09375-0.070312-0.14453-0.097656-0.035156-0.019531-0.066406-0.039062-0.10156-0.054688-0.074219-0.027343-0.14844-0.039062-0.22656-0.046874-0.019531 0-0.035156-0.011719-0.054687-0.011719h-42.238c-0.32031 0-0.61328 0.1875-0.74219 0.48047l-6.1367 13.727c-0.11328 0.25-0.089844 0.54297 0.058594 0.77344 0.14844 0.23047 0.40625 0.37109 0.68359 0.37109h2.168l-0.35937 1.6719h-8.6328l-5.7773-10.957c-0.32422-0.61328-0.86719-1.0625-1.5312-1.2656-0.66406-0.20703-1.3672-0.14062-1.9766 0.18359-0.61328 0.32422-1.0625 0.86719-1.2656 1.5312-0.20703 0.66406-0.14062 1.3672 0.18359 1.9766l4.5 8.5352h-3.2695c-1.5938 0-2.8906 1.2969-2.8906 2.8906v0.70703c-1.1289 0.15625-2.0039 1.1133-2.0039 2.2812v1.4922c0 1.207 0.93359 2.1914 2.1172 2.293l2.7812 34.402h-1.9023c-1.8164 0-3.293 1.4766-3.293 3.293v2.4648c0 1.8164 1.4766 3.293 3.293 3.293h74.852c1.8164 0 3.293-1.4766 3.293-3.293v-2.4648c0-1.8164-1.4766-3.293-3.293-3.293zm-3.6211 0h-3.6406v-36.75c0-0.44922-0.36328-0.8125-0.8125-0.8125-0.44922 0-0.8125 0.36328-0.8125 0.8125v36.75h-3.6406v-38.273l3.9922-18.527 4.918 18.547v38.254zm-46.707-59.473h40.699l-2.6055 12.098h-15.129l0.61328-6.3789c0.023438-0.22656-0.054687-0.45703-0.20703-0.625-0.15625-0.17188-0.375-0.26562-0.60156-0.26562h-11.172c-0.41797 0-0.76953 0.32031-0.8125 0.73438l-0.62891 6.5352h-15.562zm12.336 6.457h9.5352l-1.6992 17.629-1.8945-1.0742c-0.25781-0.14453-0.57422-0.14062-0.82812 0.015625l-2.2969 1.4062-1.9297-1.4336c-0.14453-0.10547-0.3125-0.16016-0.48437-0.16016-0.14063 0-0.28125 0.035156-0.40625 0.10938l-1.6797 0.96875zm-15.16 7.2695h12.824l-1.1172 11.609c-0.027344 0.30469 0.11328 0.59766 0.37109 0.76172 0.25781 0.16406 0.58203 0.17187 0.84766 0.019531l2.5859-1.4922 1.9414 1.4414c0.14453 0.10547 0.3125 0.16016 0.48438 0.16016 0.14844 0 0.29297-0.039063 0.42578-0.12109l2.3594-1.4414 2.5664 1.457c0.23828 0.13672 0.53125 0.14062 0.77734 0.015625 0.24609-0.12891 0.41016-0.37109 0.43359-0.64453l1.1328-11.766h14.938l-1.5547 7.2148c-0.011718 0.054687-0.019531 0.11328-0.019531 0.17187v38.359h-37.277l2.6328-34.402c1.1797-0.10547 2.1133-1.0859 2.1133-2.293v-1.4922c0-1.168-0.875-2.1289-2.0039-2.2812v-0.70703c0-1.5938-1.2969-2.8906-2.8906-2.8906h-1.9297l0.35938-1.6719zm-19.594-7.6211c-0.12109-0.22656-0.14453-0.48828-0.066407-0.73828s0.24219-0.44922 0.47266-0.57031c0.22656-0.12109 0.48828-0.14453 0.73828-0.066406s0.44922 0.24609 0.57031 0.47266l5.3789 10.195h-2.1875l-4.9023-9.293zm-0.20703 10.926h21.371c0.69531 0 1.2617 0.56641 1.2617 1.2617v0.67578h-23.898v-0.67578c0-0.69531 0.56641-1.2617 1.2617-1.2617zm-3.2656 5.7461v-1.4922c0-0.37891 0.30859-0.6875 0.6875-0.6875h26.531c0.37891 0 0.6875 0.30859 0.6875 0.6875v1.4922c0 0.37891-0.30859 0.6875-0.6875 0.6875l-26.535-0.003906c-0.37891 0-0.6875-0.30859-0.6875-0.6875zm2.1211 2.3125h23.66l-2.6289 34.383h-18.246l-2.7812-34.383zm75.762 40.145c0 0.91797-0.74609 1.6641-1.6641 1.6641h-74.852c-0.91797 0-1.6641-0.74609-1.6641-1.6641v-2.4648c0-0.91797 0.74609-1.6641 1.6641-1.6641h74.852c0.91797 0 1.6641 0.74609 1.6641 1.6641zm-70.629-25.73 0.95312 12.156c0.035157 0.44922-0.30078 0.83984-0.75 0.875-0.023437 0-0.042968 0.003906-0.066406 0.003906-0.42188 0-0.77734-0.32422-0.8125-0.75l-0.95312-12.156c-0.035156-0.44922 0.30078-0.83984 0.75-0.875 0.45312-0.03125 0.83984 0.30078 0.875 0.75zm-1.0781-2.5469c-0.42187 0-0.77734-0.32422-0.8125-0.75l-0.14844-1.8828c-0.035156-0.44922 0.30078-0.83984 0.75-0.875 0.45312-0.03125 0.83984 0.30078 0.875 0.75l0.14844 1.8828c0.035157 0.44922-0.30078 0.83984-0.75 0.875-0.023437 0-0.042968 0.003907-0.066406 0.003907zm28.527 18.188c0-0.44922 0.36328-0.8125 0.8125-0.8125h15.332c0.44922 0 0.8125 0.36328 0.8125 0.8125 0 0.44922-0.36328 0.8125-0.8125 0.8125h-15.332c-0.44922 0-0.8125-0.36328-0.8125-0.8125zm19.031 0c0-0.44922 0.36328-0.8125 0.8125-0.8125h3.332c0.44922 0 0.8125 0.36328 0.8125 0.8125 0 0.44922-0.36328 0.8125-0.8125 0.8125h-3.332c-0.44922 0-0.8125-0.36328-0.8125-0.8125z"/>
    </symbol>
    <symbol id="icon-italian" viewBox="0 0 100 125">
         <path d="M63.235,20.897c-0.382,0.074-0.763,0.15-1.145,0.231c-8.061,1.699-16.122,4.819-24.183,6.518  c-0.382,0.08-0.762,0.157-1.143,0.231c-8.442,1.632-16.886,1.557-25.327-3.49c0,17.075,0,34.15,0,51.225  c8.441,5.047,16.885,5.122,25.327,3.49c0.381-0.073,0.761-0.15,1.143-0.23c8.061-1.7,16.122-4.819,24.183-6.518  c0.382-0.081,0.763-0.159,1.145-0.232c8.441-1.631,16.884-1.557,25.326,3.49c0-17.075,0-34.15,0-51.225  C80.119,19.34,71.677,19.266,63.235,20.897z M36.766,77.96c-8.063,1.558-16.123,1.56-24.185-2.838c0-16.313,0-32.626,0-48.939  c8.062,4.397,16.122,4.395,24.185,2.837C36.766,45.333,36.766,61.646,36.766,77.96z M37.908,77.729c0-16.314,0-32.627,0-48.941  c8.061-1.699,16.122-4.819,24.183-6.518c0,16.313,0,32.626,0,48.941C54.03,72.91,45.969,76.029,37.908,77.729z M87.419,73.817  c-8.062-4.397-16.122-4.396-24.184-2.838c0-16.313,0-32.626,0-48.939c8.062-1.558,16.122-1.561,24.184,2.837  C87.419,41.19,87.419,57.503,87.419,73.817z"/>
    </symbol>
    <symbol id="icon-japanese" viewBox="0 0 32 40">
         <path d="M30.5,25.5l0,-19l-29,0l0,19l29,0Zm-1,-18l0,17c-0,-0 -27,-0 -27,-0c0,0 0,-17 0,-17l27,-0Zm-13.5,3.5c-2.76,0 -5,2.24 -5,5c-0,2.76 2.24,5 5,5c2.76,0 5,-2.24 5,-5c0,-2.76 -2.24,-5 -5,-5Zm-0,1c2.208,0 4,1.792 4,4c0,2.208 -1.792,4 -4,4c-2.208,0 -4,-1.792 -4,-4c-0,-2.208 1.792,-4 4,-4Z"/>
    </symbol>
    <symbol id="icon-thai" viewBox="0 0 100 125">
         <path d="M90.719,18.227H9.281c-0.829,0-1.5,0.672-1.5,1.5v60.557c0,0.828,0.671,1.5,1.5,1.5h81.438c0.829,0,1.5-0.672,1.5-1.5    V19.727C92.219,18.898,91.547,18.227,90.719,18.227z M89.219,21.396v7.092H10.781v-7.092H89.219z M10.781,38.412v-6.924h78.438    v6.924H10.781z M89.219,41.412v17.186H10.781V41.412H89.219z M10.781,61.598h78.438v6.838H10.781V61.598z M10.781,78.783v-7.348    h78.438v7.348H10.781z"/>
         </symbol>
    <symbol id="icon-mexican" viewBox="0 0 100 125">
         <path d="M50.1333008,60.6333008c0.2685547-0.0615234,0.4365234-0.3295898,0.3759766-0.5981445  c-0.0141602-0.0629883-0.3354492-1.5571289,0.7490234-2.4448242c0.2133789-0.1748047,0.2451172-0.4897461,0.0698242-0.7036133  c-0.1743164-0.2128906-0.4887695-0.2456055-0.7036133-0.0698242c-0.1967773,0.1610718-0.3615723,0.3345337-0.4994507,0.5147705  c-0.5855713,0.204834-3.0079956,0.8894043-4.6851196-1.1226807c-0.1499023-0.1791992-0.40625-0.2314453-0.6137695-0.1240234  c-0.0117188,0.0063477-1.2285156,0.6176758-2.3828125,0.246582c-0.6411133-0.2075195-1.1591797-0.6918945-1.5410156-1.4394531  c-0.0976563-0.1914063-0.3032227-0.2998047-0.5214844-0.2670898c-0.0112305,0.0014648-1.109375,0.1494141-1.9042969-0.4975586  c-0.5415039-0.4414063-0.8417969-1.168457-0.8916016-2.1352539c0-0.003418,0.0175781-0.3647461,0.2333984-0.4951172  c0.121582-0.074707,0.5092773-0.1894531,1.4560547,0.3071289c0.0092773,0.0058594,0.9086914,0.5795898,1.0556641,1.6074219  c0.0244141,0.1699219,0.1352539,0.3149414,0.2924805,0.3852539c0.15625,0.0708008,0.3398438,0.0537109,0.4824219-0.0415039  c0.0083008-0.0058594,0.8242188-0.5375977,1.7539063-0.3417969c0.6474609,0.137207,1.2236328,0.5986328,1.7128906,1.371582  c0.0864258,0.1367188,0.2358398,0.2216797,0.3979492,0.2299805c0.1513672,0.0053711,0.3188477-0.0639648,0.4199219-0.1914063  c0.1289063-0.1645508,1.331543-1.5576172,3.6020508,0.0976563c0.0419922,0.03125,0.0888672,0.0551758,0.1386719,0.0712891  c0.8642578,0.2832031,2.6191406,0.4506836,3.0825195-0.9414063c0.0576172-0.171875,0.0170898-0.3618164-0.1049805-0.4956055  c-0.012207-0.0131836-1.2011719-1.3183594-1.7143555-2.2368164c-0.0849609-0.1513672-0.2421875-0.2480469-0.4155273-0.2553711  c-0.1723633-0.0209961-0.3388672,0.0756836-0.4355469,0.2197266c-0.0029297,0.0048828-0.3554688,0.4975586-1.1469727,0.6293945  c-0.9956055,0.1669922-2.2675781-0.3120117-3.6826172-1.3798828c-0.2211914-0.1679688-0.534668-0.1230469-0.7001953,0.0976563  c-0.1665039,0.2202148-0.1225586,0.5341797,0.0976563,0.7001953c1.6625977,1.2553711,3.1601563,1.784668,4.449707,1.5683594  c0.5751953-0.0957031,1.0043945-0.3271484,1.3007813-0.5493164c0.4238281,0.6206055,0.9609375,1.2578125,1.2670898,1.6088867  c-0.3964844,0.3984375-1.3574219,0.1738281-1.6196289,0.1030273c-2.1625977-1.5356445-3.703125-0.8476563-4.434082-0.2958984  c-0.5756836-0.7270508-1.2543945-1.1748047-2.0229492-1.3334961c-0.7587891-0.1567383-1.4384766,0.0078125-1.8989258,0.1879883  c-0.4091797-1.0791016-1.3134766-1.6425781-1.3823242-1.684082c-1.0507813-0.5512695-1.8808594-0.6508789-2.46875-0.2949219  c-0.6962891,0.4208984-0.7163086,1.2573242-0.7158203,1.3764648c0.0654297,1.2871094,0.4892578,2.2573242,1.2597656,2.8852539  c0.8198242,0.6674805,1.8125,0.7431641,2.328125,0.7373047c0.4951172,0.8320313,1.1567383,1.3847656,1.9716797,1.6459961  c1.1206055,0.3574219,2.2255859,0.0541992,2.777832-0.1557617c1.1118164,1.1572266,2.4438477,1.4628906,3.5424805,1.4628906  c0.4127808,0,0.7877197-0.0446167,1.1106567-0.1021118c-0.2294922,0.9104004-0.0534668,1.7158203-0.0408325,1.7695923  c0.0537109,0.2304688,0.2587891,0.3852539,0.4858398,0.3852539C50.0581055,60.6459961,50.0957031,60.6420898,50.1333008,60.6333008z  "/>
         <path d="M36.1235352,47.1118164c0.0327148,0.0029297,0.7963867,0.081543,0.7075195,1.4140625  c-0.0180664,0.2753906,0.1904297,0.5136719,0.4658203,0.5322266c0.2783203,0.0180664,0.5141602-0.1899414,0.5322266-0.4658203  c0.1225586-1.8422852-1.0078125-2.4257813-1.7006836-2.4770508c-0.5097656,0.034668-0.8447266-0.0239258-1.0546875-0.1166992  c1.1982422-0.2363281,2.1425781-0.1494141,2.7543945,0.2578125c0.6298828,0.4189453,0.71875,1.0473633,0.7319336,1.1293945  c0.3647461,1.5419922,0.9536133,2.5185547,1.7514648,2.9033203c0.2739258,0.1323242,0.5292969,0.1743164,0.7426758,0.1743164  c0.0679932,0,0.12854-0.0062866,0.1871948-0.0131836c0.0859375,0.3775635,0.3621216,0.8639526,1.1663208,1.2055664  c0.0620117,0.0258789,0.128418,0.0395508,0.1953125,0.0395508h0.3608398c0.2763672,0,0.5-0.2236328,0.5-0.5s-0.2236328-0.5-0.5-0.5  h-0.2543945c-0.3017578-0.1430664-0.4702148-0.3081055-0.5-0.4907227c-0.0596924-0.3649902,0.333252-0.8739014,0.6113281-1.1549683  c0.0290527,0.0007935,0.0535278,0.0094604,0.0830078,0.0094604c0.0234375,0,0.046875,0,0.0708008-0.0004883  c0.2758789-0.0058594,0.4951172-0.234375,0.4892578-0.5107422c-0.0058594-0.2724609-0.2285156-0.4892578-0.5-0.4892578  c-0.003418,0-0.0068359,0-0.0107422,0c-1.8007813,0.0654297-2.3574219-1.9941406-2.4018555-2.144043  c-0.1577148-0.3808594-0.1733398-0.7099609-0.0483398-1.0058594c0.2402344-0.5688477,0.9272461-0.8481445,0.9711914-0.8671875  c1.109375-0.5429688,1.762207-1.2426758,1.9414063-2.0791016c0.1331177-0.6229858-0.0353394-1.1713257-0.2165527-1.5483398  c0.2389526-0.1156006,0.5159302-0.22229,0.8126221-0.2980957c0.3052979,0.3468628,0.9121704,1.1621704,0.776001,2.0378418  c-0.0351563,0.2265625-0.1176758,0.4472656-0.2456055,0.6601563c-0.027832,0.0327148-0.0517578,0.0693359-0.0703125,0.109375  c-0.3574219,0.5234375-0.9946289,1-1.8808594,1.4135742c-0.0947266,0.0263672-0.9301758,0.2802734-1.0795898,1.0078125  c-0.1088867,0.5317383,0.1938477,1.0898438,0.9008789,1.6586914c0.0283203,0.0229492,0.0595703,0.0424805,0.0922852,0.0585938  c0.8364258,0.4130859,2.2392578,1.347168,2.4443359,2.0947266c0.0454102,0.1655273,0.0244141,0.3017578-0.0668945,0.4423828  c-0.0922852,0.1416016-0.1069336,0.3203125-0.0385742,0.4746094c0.0683594,0.1547852,0.2099609,0.2641602,0.3764648,0.2915039  c0.0371094,0.0063477,0.1733398,0.0263672,0.3574219,0.0263672c0.355957,0,0.8891602-0.0751953,1.2246094-0.4726563  c0.3120117-0.3706055,0.3579102-0.8828125,0.0996094-1.605957c-0.5424805-0.9604492-1.8510742-3.6875-1.5214844-4.9550781  c0.206543-0.3320313,0.3388672-0.6821289,0.3959961-1.0507813c0.140686-0.9057007-0.2103882-1.7064209-0.5772705-2.2719727  c0.2357178-0.0097046,0.4368286-0.1740112,0.4737549-0.4135742c0.0419922-0.2729492-0.1450195-0.5283203-0.4179688-0.5703125  c-0.3723145-0.0579834-0.7315674-0.0325928-1.0784302,0.0211182c-0.0263672,0.0002441-0.0510254,0.0077515-0.0770874,0.012146  c-0.5661621,0.0986938-1.0847778,0.2944946-1.4865723,0.5018921c0.1342773-0.6811523,0.5131836-1.5844727,1.5532227-2.0786133  c0.0654297-0.0209961,1.4077148-0.4638672,1.8623047-1.6630859c1.2511597,0.480957,4.4958496,2.0514526,5.0928955,5.552124  c0.019043,0.2318115,0.1380005,1.4649048,0.5506592,2.1060791c0.1884766,0.2700195,0.5932617,0.9423828,0.6420898,1.2958984  c0.0341797,0.2504883,0.2485352,0.4316406,0.4946289,0.4316406c0.0224609,0,0.0458984-0.0014648,0.0688477-0.0048828  c0.2734375-0.0375977,0.4648438-0.2900391,0.4267578-0.5634766c-0.0947266-0.6860352-0.7387695-1.6264648-0.8017578-1.7158203  c-0.2039185-0.3168335-0.3347168-1.1039429-0.3783569-1.581665c0.1774292-0.6681519,1.0124512-4.3903809-1.8687134-6.21521  c-0.4140625-0.2451172-0.8442383-0.640625-0.8837891-0.7397461c0.0107422-0.0146484,0.2607422-0.3613281,2.418457-0.3452148  c0.0439453-0.0078125,4.4697266-0.3886719,8.8891602,4.0292969c0.0561523,0.0644531,5.3173828,6.3164063,2.5737305,14.0737305  c-1.1362305-1.9375-4.0351563-6.2045898-7.9692383-7.1005859c-0.1333008-0.03125-0.2744141-0.0048828-0.3891602,0.0722656  c-0.0429688,0.0283203-1.0444336,0.7114258-1.1821289,1.7963867c-0.0354004,0.2773438-0.0022583,0.5505371,0.0782471,0.8205566  c0.0011597,0.0062256-0.0010376,0.012085,0.0003662,0.0183105c0.0043945,0.0195313,0.4316406,1.9663086,0.1811523,3.5786133  c-0.0424805,0.2724609,0.1445313,0.5283203,0.4174805,0.5708008c0.0258789,0.0039063,0.0517578,0.0058594,0.0771484,0.0058594  c0.2421875,0,0.4550781-0.1762695,0.4936523-0.4233398c0.1085205-0.6983032,0.1052246-1.434082,0.0609131-2.0817261  c0.9538574,0.9330444,2.8091431,2.6409302,4.4649658,3.5309448c-0.9990234,0.4296875-2.7402344,0.8823242-4.5083008-0.0566406  c-0.1240234-0.0654297-0.269043-0.0761719-0.4023438-0.0292969c-0.1318359,0.0473633-0.2382813,0.1479492-0.2929688,0.2773438  c-0.2661133,0.6318359-0.2202148,1.7753906,0.9677734,2.3862305c0.1518555,0.1523438,0.4492188,0.5092773,0.4624023,0.8081055  c0.0048828,0.1044922-0.0292969,0.1899414-0.1103516,0.277832c-0.1547852,0.1674805-0.1767578,0.4179688-0.0532227,0.6098633  c0.0341797,0.0532227,0.3505859,0.5205078,0.9296875,0.5463867c0.453125,0.0205078,0.8901367-0.2333984,1.2714844-0.7260742  c0.2216797-0.2436523,0.9248047-0.871582,1.5224609-0.871582c0.0039063,0,0.0078125,0,0.0112305,0  c0.2089844,0.0029297,0.3862305,0.0859375,0.5532227,0.2602539c0.0859375,0.2075195,0.3579102,0.9609375-0.0102539,1.4204102  c-0.3120117,0.3881836-1.347168,0.9150391-4.7822266,0.0859375c-0.034668-0.0083008-0.0698242-0.0131836-0.1054688-0.0141602  c-0.1640625,0.0048828-1.6108398-0.0141602-2.4311523,0.8139648c-0.3676758,0.371582-0.5522461,0.862793-0.5327148,1.4199219  c0.0092773,0.2705078,0.230957,0.4829102,0.4990234,0.4829102c0.0058594,0,0.0117188,0,0.0175781-0.0004883  c0.2763672-0.0092773,0.4921875-0.2407227,0.4824219-0.5166016c-0.0097656-0.2866211,0.0673828-0.5029297,0.2431641-0.6811523  c0.4174805-0.4238281,1.2871094-0.5166016,1.6484375-0.519043c3.0429688,0.7280273,4.9238281,0.5810547,5.7456055-0.4511719  c0.8300781-1.043457,0.1274414-2.4799805,0.097168-2.5405273c-0.0185547-0.0371094-0.0415039-0.0717773-0.0688477-0.1030273  c-0.3662109-0.4243164-0.831543-0.6513672-1.3461914-0.6572266c-1.1352539,0.0004883-2.1728516,1.0766602-2.3085938,1.2285156  c-0.1264648,0.1625977-0.2368164,0.2631836-0.3217773,0.3173828c0.0390625-0.1381836,0.0551758-0.2827148,0.0483398-0.4316406  c-0.0385742-0.8076172-0.7563477-1.472168-0.8378906-1.5454102c-0.0356445-0.0317383-0.0756836-0.0585938-0.1186523-0.0786133  C55.402832,54.5,55.2431641,54.2866211,55.1796875,54.0874023c2.9780273,1.1342773,5.6176758-0.6826172,5.7363281-0.7666016  c0.1557617-0.109375,0.2358398-0.2973633,0.2070313-0.4853516s-0.1621094-0.3432617-0.34375-0.4008789  c-2.1791992-0.6875-5.6391602-4.3066406-5.6625977-4.3310547c-0.3198242-0.359375-0.4550781-0.6987305-0.4135742-1.0371094  c0.0532227-0.434082,0.3837891-0.7875977,0.5869141-0.9677734c4.4321289,1.1948242,7.5571289,7.4008789,7.5888672,7.4643555  c0.0859375,0.1738281,0.2763672,0.2973633,0.4599609,0.277832c0.1943359-0.0048828,0.3686523-0.1220703,0.4462891-0.300293  c3.8212891-8.7695313-2.2856445-16.0268555-2.3735352-16.1264648c-4.8012695-4.8007813-9.527832-4.3642578-9.6713867-4.347168  c-2.1166992-0.0009766-3.1176758,0.3081055-3.3217773,1.050293c-0.2431641,0.8837891,0.9541016,1.671875,1.3139648,1.8847656  c1.1650391,0.7382813,1.5419922,1.9379883,1.6157227,2.9975586c-1.7133789-3.2021484-5.362793-4.2387695-5.5478516-4.2895508  c-0.1430664-0.0380859-0.2949219-0.0131836-0.4169922,0.0717773C45.2617188,34.8657227,45.184082,35,45.1704102,35.1469727  c-0.090332,0.9960938-1.2993164,1.4052734-1.3706055,1.4326172c-1.8675537,0.8820801-2.2041016,2.6150513-2.2504272,3.4815674  c-0.1426392,0.0310059-0.3370972,0.0462646-0.538147-0.0323486C40.6835938,39.8989258,40.4140625,39.5527344,40.2094727,39  c-0.0366211-0.0991211-0.1035156-0.184082-0.1914063-0.2426758c-0.0029297-0.0019531-0.2685547-0.1962891-0.2573242-0.46875  c0.0078125-0.1884766,0.168457-0.7060547,1.4433594-1.4130859c0.2431641-0.1044922,0.5888672-0.1699219,0.6386719-0.1796875  c0,0.0004883,0.0131836,0.0419922-0.003418,0.1523438c-0.0415039,0.2729492,0.1464844,0.527832,0.4194336,0.5693359  c0.2709961,0.0332031,0.527832-0.1474609,0.5693359-0.4199219c0.0878906-0.5834961-0.137207-0.894043-0.3417969-1.0512695  c-0.5493164-0.4238281-1.4238281-0.0991211-1.7216797,0.0327148c-1.3144531,0.7260742-1.9697266,1.4682617-2.0029297,2.2680664  c-0.0234375,0.5668945,0.296875,1.0024414,0.5625,1.2348633c0.3100586,0.7636719,0.7597656,1.2631836,1.3393555,1.484375  c0.2353516,0.090332,0.4624023,0.1225586,0.6669922,0.1225586c0.2386475,0,0.4462891-0.0441895,0.6022339-0.092041  c0.1390381,0.0344849,0.2844849,0.0152588,0.4038086-0.067749c0.0939331,0.2228394,0.1687622,0.5178223,0.0994263,0.831665  c-0.1147461,0.5185547-0.5859375,0.9833984-1.3623047,1.3652344c-0.043457,0.0170898-1.078125,0.4267578-1.4882813,1.3842773  c-0.2353516,0.5498047-0.2211914,1.1508789,0.0200195,1.7226563c0.2011719,0.7669678,0.8719482,2.0425415,2.1096802,2.5742188  c-0.1279907,0.1747437-0.2473145,0.3759766-0.342041,0.597229c-0.0485229,0.0066528-0.0973511,0.0130615-0.144104,0.0346069  c-0.0014648,0.0009766-0.2128906,0.0800781-0.4829102-0.050293c-0.2885742-0.1391602-0.8300781-0.6147461-1.2021484-2.171875  c-0.0048828-0.0439453-0.1293945-1.0908203-1.137207-1.7763672c-0.984375-0.6699219-2.421875-0.7519531-4.2744141-0.2460938  c-0.2167969,0.0595703-0.3676758,0.2573242-0.3676758,0.4824219c0,0.0532227,0.012207,0.5322266,0.4433594,0.9326172  C34.6376953,47.0087891,35.3115234,47.1777344,36.1235352,47.1118164z M45.9931641,48.7226563  c0.1088867,0.3149414,0.0942383,0.4912109,0.0439453,0.5512695c-0.0151367,0.0185547-0.0375977,0.034668-0.0654297,0.0488281  c0.0004883-0.1420898-0.019043-0.2861328-0.0585938-0.4311523c-0.3720703-1.3535156-2.4848633-2.4829102-2.9145508-2.7001953  c-0.4467773-0.3691406-0.5185547-0.590332-0.5078125-0.6455078c0.0141602-0.0722656,0.2026367-0.1967773,0.4443359-0.2734375  c0.5629883-0.2597656,1.0444336-0.5429688,1.4433594-0.8481445C44.628418,46.2719727,45.8466797,48.4765625,45.9931641,48.7226563z"/>
         <path d="M69.996582,50.2167969c-0.1445313-0.7514648-0.6811523-1.2231445-0.9633789-1.4248047l-0.4628906-1.2944336  c-0.0522461-0.1464844-0.1694336-0.2602539-0.3168945-0.3081055c-0.1479492-0.0483398-0.3100586-0.0244141-0.4375,0.0644531  c-0.5283203,0.3637695-0.8759766,1.1049805-1.0834961,1.7084961l-0.168457-0.1826172  c-0.1235352-0.1337891-0.3056641-0.1904297-0.484375-0.1474609c-0.1757813,0.0424805-0.3154297,0.1762695-0.3647461,0.3505859  c-0.4335938,1.5395508,0.3701172,3.3222656,0.699707,3.9584961c-0.1245117,0.2158203-0.3188477,0.4511719-0.453125,0.5917969  c-2.6772461,1.8017578-2.3979492,4.3203125-2.2416992,5.0742188c-0.3168945,0.5205078-0.909668,0.7880859-1.3491211,0.9208984  V58.9375c0-0.171875-0.0883789-0.331543-0.2338867-0.4233398c-0.1455078-0.0908203-0.3276367-0.1025391-0.4824219-0.0273438  c-1.1567383,0.5551758-2.1816406,2.8417969-2.3828125,3.3134766c-0.3989258,0.512207-1.012207,0.7211914-1.4423828,0.8061523  V62.527832c0-0.2250977-0.1503906-0.4228516-0.3676758-0.4824219c-2.8857422-0.7885742-5.894043,1.4150391-6.0209961,1.5083008  c-0.2216797,0.1650391-0.2675781,0.4780273-0.1030273,0.699707c0.0981445,0.1318359,0.2490234,0.2016602,0.4018555,0.2016602  c0.1035156,0,0.2084961-0.0322266,0.2978516-0.0986328c0.0258789-0.0195313,2.4707031-1.8125,4.7919922-1.4272461v0.2358398  c0,0.2749023,0.2216797,0.4980469,0.496582,0.5c0.0454102-0.0014648,1.8237305-0.0014648,2.7861328-1.3183594  c0.0229492-0.0317383,0.0424805-0.0664063,0.0576172-0.1025391c0.2578125-0.6186523,0.7236328-1.5288086,1.2011719-2.1665039  v0.0693359c0,0.1411133,0.0595703,0.2758789,0.1645508,0.3706055c0.1044922,0.0947266,0.2446289,0.140625,0.3852539,0.1269531  c0.0839844-0.0083008,2.0644531-0.2226563,2.7822266-1.7573242c0.0532227-0.1132813,0.0610352-0.2441406,0.0239258-0.3632813  c-0.0317383-0.1010742-0.7407227-2.484375,1.8320313-4.1870117c0.027832-0.0185547,0.0541992-0.0395508,0.0776367-0.0634766  c0.0610352-0.0610352,0.6035156-0.6137695,0.8085938-1.1777344c0.0512695-0.1401367,0.0366211-0.2963867-0.0390625-0.425293  c-0.0087891-0.0146484-0.6821289-1.1733398-0.8007813-2.3710938l0.0024414,0.0024414  c0.1279297,0.1396484,0.3232422,0.1943359,0.5039063,0.1420898c0.1811523-0.0512695,0.3178711-0.199707,0.3544922-0.3847656  c0.0639648-0.3251953,0.2319336-0.9130859,0.465332-1.3789063l0.2167969,0.6064453  c0.0410156,0.1157227,0.1235352,0.2124023,0.2314453,0.2709961c0.0048828,0.0029297,0.5302734,0.3032227,0.6347656,0.847168  c0.0810547,0.4238281-0.1083984,0.9169922-0.5639648,1.4658203c-0.1762695,0.2124023-0.1469727,0.527832,0.0654297,0.7041016  c0.2119141,0.1762695,0.5288086,0.1464844,0.7041016-0.0654297C69.8754883,51.7192383,70.1367188,50.9477539,69.996582,50.2167969z"/>
         <path d="M68.5263672,54.2451172c-0.1523438-0.0703125-0.3295898-0.0610352-0.4711914,0.0268555  c-0.4892578,0.2988281-0.7172852,0.3510742-0.762207,0.3588867c-0.25-0.0073242-0.4663086,0.1674805-0.5083008,0.4174805  c-0.0454102,0.2719727,0.1381836,0.5297852,0.4106445,0.5756836c0.1176758,0.0195313,0.3081055,0.0078125,0.6030273-0.1030273  c-0.1186523,0.6796875-0.5551758,1.644043-2.012207,2.105957c-0.2636719,0.0834961-0.4091797,0.3642578-0.3256836,0.6274414  c0.0673828,0.2133789,0.2641602,0.3491211,0.4765625,0.3491211c0.0498047,0,0.1010742-0.0073242,0.1508789-0.0234375  c2.5126953-0.7963867,2.8793945-2.9370117,2.722168-3.9575195C68.784668,54.4575195,68.6782227,54.315918,68.5263672,54.2451172z"/>
         <path d="M63.7236328,60.5234375l-1.4707031,0.7353516c-0.2470703,0.1235352-0.347168,0.4238281-0.2236328,0.6708984  c0.1240234,0.2470703,0.4233398,0.3466797,0.6708984,0.2236328l0.5961914-0.2978516  c-0.1425781,0.5429688-0.3984375,1.1362305-0.8261719,1.3637695c-0.3823242,0.203125-0.9111328,0.1025391-1.5766602-0.2978516  c-0.2363281-0.144043-0.5444336-0.0664063-0.6860352,0.1704102c-0.1425781,0.2363281-0.0664063,0.5439453,0.1704102,0.6860352  c0.6030273,0.3632813,1.159668,0.5454102,1.6640625,0.5454102c0.3208008-0.0004883,0.6201172-0.0737305,0.8974609-0.2211914  c1.3442383-0.7138672,1.4946289-2.862793,1.5073242-3.1054688c0.0092773-0.1772461-0.0766602-0.3466797-0.2255859-0.4443359  C64.0722656,60.4550781,63.8828125,60.4443359,63.7236328,60.5234375z"/>
         <path d="M55.1616211,64.2792969c-0.2749023,0.0263672-0.4760742,0.2705078-0.449707,0.5454102  s0.2734375,0.484375,0.5454102,0.449707c0.7231445-0.0693359,1.5981445-0.0678711,2.1499023,0.0273438  c-0.1591797,0.1855469-0.3984375,0.3930664-0.7456055,0.5390625c-0.8583984,0.3623047-2.0839844,0.2089844-3.5800781-0.4545898  c-0.1870117-0.0649414-1.8496094-0.640625-2.6616211-0.5893555c-0.2753906,0.0161133-0.4858398,0.2524414-0.4697266,0.5283203  c0.0161133,0.2753906,0.2504883,0.4907227,0.5283203,0.4697266c0.4443359-0.0244141,1.6386719,0.3139648,2.2353516,0.5205078  c1.0791016,0.4794922,2.0488281,0.7197266,2.9008789,0.7197266c0.5356445,0,1.0249023-0.0952148,1.4648438-0.2856445  c1.1674805-0.5048828,1.5283203-1.5058594,1.543457-1.5478516c0.0742188-0.2128906-0.0029297-0.4492188-0.1889648-0.5771484  C57.6323242,64.0732422,55.5673828,64.2392578,55.1616211,64.2792969z"/>
         <path d="M49.0991211,63.9316406c-0.0263672-0.0014648-2.6181641-0.1806641-3.9824219-1.3891602  c-0.0732422-0.0644531-0.1640625-0.1064453-0.2607422-0.1206055c-0.1035156-0.0141602-0.559082-0.0634766-0.9160156,0.1523438  c-0.3916016-0.3945313-0.9326172-0.7836914-1.4672852-0.6669922c-0.1826172,0.0400391-0.328125,0.1782227-0.3764648,0.3588867  c-0.0004883,0.0014648-0.0556641,0.1611328-0.1914063,0.1992188c-0.2412109,0.0654297-0.7963867-0.1464844-1.6401367-0.9487305  c-0.0273438-0.0258789-0.0576172-0.0488281-0.090332-0.0678711c-0.0083008-0.0053711-0.8583984-0.5292969-0.8583984-1.3017578  c0-0.1694336-0.0859375-0.3276367-0.2285156-0.4199219c-0.1303711-0.0844727-0.2919922-0.1020508-0.4379883-0.0517578  c-0.2075195-0.3911133-0.5078125-0.9594727-0.6411133-1.2246094c-0.0874023-0.1733398-0.2563477-0.2792969-0.4604492-0.2753906  c-0.1938477,0.0053711-0.3671875,0.1225586-0.4448242,0.300293l-0.0234375,0.0541992  c-0.4956055-0.5249023-1.2485352-1.5351563-1.581543-3.0722656c-0.0356445-0.1645508-0.1513672-0.2998047-0.3085938-0.3603516  c-0.0112305-0.0043945-0.0229492-0.0087891-0.0351563-0.012207c-0.0224609-0.4501953-0.0834961-1.012207-0.2387695-1.4267578  c-0.0639648-0.1708984-0.2158203-0.2929688-0.3959961-0.3193359c-0.1801758-0.0258789-0.3603516,0.0473633-0.4707031,0.1923828  l-0.2133789,0.2817383c-0.4248047-0.4462891-1.0068359-1.5209961,0.0229492-3.6308594  c0.0849609-0.1738281,0.0620117-0.3808594-0.059082-0.5317383c-0.0556641-0.0698242-0.1279297-0.121582-0.2075195-0.152832  c0.2587891-0.421875,0.4697266-0.9101563,0.4462891-1.3569336c-0.0141602-0.265625-0.2333984-0.4736328-0.4995117-0.4736328  h-0.1904297l-0.046875-0.5385742c-0.0151367-0.175293-0.121582-0.3295898-0.2802734-0.4067383  c-0.1586914-0.0766602-0.3457031-0.0649414-0.4926758,0.0327148c-0.1118164,0.0732422-2.4775391,1.6601563-2.1938477,3.6953125  c-0.1254883,0.034668-0.2338867,0.1171875-0.300293,0.2329102c-0.0893555,0.1552734-0.0883789,0.3466797,0.0019531,0.5014648  l0.7353516,1.2583008c0.1386719,0.237793,0.4443359,0.3183594,0.684082,0.1791992  c0.2382813-0.1391602,0.3183594-0.4453125,0.1791992-0.684082l-0.3520508-0.6025391  c0.0473633-0.0351563,0.0888672-0.0786133,0.1220703-0.1289063c0.0922852-0.1411133,0.1079102-0.3188477,0.0405273-0.4736328  c-0.4326172-0.9975586,0.3203125-1.9804688,0.9418945-2.574707l0.0043945,0.0527344  c0.0224609,0.2583008,0.2387695,0.456543,0.4980469,0.456543H32.90625  c-0.1958008,0.4067383-0.5688477,0.8911133-0.8525391,1.1865234c-0.1538086,0.1601563-0.1835938,0.4023438-0.0737305,0.5947266  c0.1108398,0.1928711,0.3349609,0.2915039,0.550293,0.2382813l0.0419922-0.0102539  c-1.0571289,3.1225586,1.1040039,4.2739258,1.128418,4.2866211c0.1425781,0.0732422,0.3071289,0.0708008,0.4443359,0.0053711  c0.0239258,0.3408203,0.0244141,0.6611328,0.019043,0.8251953c-0.0063477,0.1899414,0.0957031,0.3671875,0.2631836,0.4570313  c0.0810547,0.043457,0.1728516,0.0629883,0.2597656,0.059082c0.706543,2.3139648,2.2109375,3.4169922,2.2802734,3.4667969  c0.1230469,0.0874023,0.2788086,0.1162109,0.4243164,0.0756836c0.0639648-0.0175781,0.1225586-0.0473633,0.1738281-0.0869141  c0.2172852,0.4116211,0.4199219,0.7919922,0.4199219,0.7919922c0.0898438,0.1679688,0.262207,0.2646484,0.4418945,0.2646484  h0.0004883c0.2758789,0.8144531,0.9804688,1.3212891,1.1835938,1.4536133  c1.0302734,0.9702148,1.8666992,1.3481445,2.5639648,1.1523438c0.3232422-0.0908203,0.5356445-0.2841797,0.6713867-0.4692383  c0.2226563,0.1430664,0.5561523,0.4760742,0.7958984,0.8115234c0.1391602,0.1948242,0.3955078,0.2426758,0.6132813,0.1425781  c0.1889648-0.0874023,0.2983398-0.2958984,0.2861328-0.5014648c0.015625-0.0014648,0.0322266-0.0029297,0.0488281-0.003418  c1.6416016,1.3325195,4.3286133,1.5146484,4.4453125,1.5219727c0.0107422,0.0004883,0.0214844,0.0009766,0.0317383,0.0009766  c0.2617188,0,0.4814453-0.2036133,0.4985352-0.4682617C49.5834961,64.1865234,49.3745117,63.9492188,49.0991211,63.9316406z"/>
         <path d="M33.9936523,57.6152344c-0.4536133,0.0991211-0.8422852-0.0522461-1.1025391-0.2124023l0.3344727-0.3881836  c0.1171875-0.1362305,0.1523438-0.324707,0.0922852-0.4941406c-0.0605469-0.1694336-0.2070313-0.2929688-0.3842773-0.3242188  c-0.1245117-0.0219727-0.2949219-0.1972656-0.4648438-0.4414063c0.2568359,0.0419922,0.4975586-0.1201172,0.5600586-0.3730469  c0.0673828-0.2680664-0.0957031-0.5390625-0.3637695-0.605957l-1.0380859-0.2592773  c-0.1791992-0.0454102-0.3725586,0.0136719-0.4960938,0.1542969c-0.1235352,0.1401367-0.1586914,0.3374023-0.0908203,0.5117188  c0.0869141,0.2246094,0.4584961,1.1162109,1.0356445,1.6347656l-0.2783203,0.3232422  c-0.1645508,0.190918-0.1611328,0.4746094,0.0083008,0.6616211c0.0351563,0.0390625,0.7792969,0.8457031,1.8945313,0.8457031  c0.1616211,0,0.3320313-0.0170898,0.5083008-0.0561523c0.2695313-0.0595703,0.4404297-0.3261719,0.3808594-0.5957031  S34.262207,57.5546875,33.9936523,57.6152344z"/>
         <path d="M38.1899414,62.3535156c-0.5205078,0.1625977-0.894043,0.1582031-1.1479492,0.1030273l0.0078125-0.0078125  c0.1347656-0.1342773,0.1811523-0.3334961,0.1201172-0.5136719s-0.2192383-0.3105469-0.4077148-0.3354492  c-0.1123047-0.0151367-0.3149414-0.1699219-0.5415039-0.3979492c0.1347656-0.0249023,0.2216797-0.0522461,0.2446289-0.0600586  c0.2602539-0.0869141,0.3994141-0.3662109,0.3149414-0.6269531c-0.0834961-0.2607422-0.3642578-0.4052734-0.6269531-0.3227539  c-0.0039063,0.0004883-0.4008789,0.1220703-0.8852539-0.0073242c-0.1982422-0.0541992-0.4150391,0.0229492-0.5361328,0.1928711  c-0.1210938,0.1704102-0.1240234,0.3974609-0.0068359,0.5703125c0.1650391,0.2436523,0.6132813,0.8666992,1.1376953,1.2739258  c-0.1777344,0.1821289-0.1904297,0.4697266-0.0283203,0.6669922c0.0258789,0.03125,0.5102539,0.6010742,1.5605469,0.6005859  c0.3134766,0,0.6777344-0.0507813,1.0947266-0.1816406c0.2631836-0.0830078,0.409668-0.3632813,0.3271484-0.6269531  C38.7338867,62.4174805,38.4536133,62.269043,38.1899414,62.3535156z"/>
         <path d="M46.1645508,65.3457031c-0.5742188,0.8261719-1.0800781,1.0322266-1.3818359,1.0693359v-0.2973633  c0-0.1796875-0.0961914-0.3457031-0.2524414-0.4345703c-0.1557617-0.0883789-0.3476563-0.0869141-0.5024414,0.0043945  c-0.3896484,0.2319336-0.7602539,0.2246094-1.0253906,0.1635742l0.1186523-0.2631836  c0.0610352-0.1347656,0.059082-0.2900391-0.0053711-0.4233398c-0.0649414-0.1333008-0.1850586-0.2314453-0.3291016-0.2670898  c-0.3505859-0.0878906-0.8779297-0.6464844-1.140625-1.015625c-0.159668-0.2250977-0.4711914-0.2788086-0.6972656-0.1176758  c-0.2246094,0.159668-0.277832,0.4711914-0.1186523,0.6962891c0.0678711,0.0952148,0.5600586,0.7729492,1.1772461,1.1650391  l-0.1293945,0.2866211c-0.1015625,0.2246094-0.0244141,0.4892578,0.1821289,0.6240234  c0.0380859,0.0249023,0.7783203,0.4960938,1.7226563,0.3061523v0.0107422c0,0.1962891,0.1147461,0.3745117,0.2939453,0.4555664  c0.0234375,0.0107422,0.2504883,0.1088867,0.6020508,0.1088867c0.5605469,0,1.4370117-0.2495117,2.3071289-1.5009766  c0.1577148-0.2270508,0.1015625-0.5385742-0.125-0.6962891C46.6323242,65.0615234,46.3212891,65.1181641,46.1645508,65.3457031z"/>
         <path d="M90.25,18.1137695H9.75c-0.2763672,0-0.5,0.2236328-0.5,0.5v62.7724609c0,0.2763672,0.2236328,0.5,0.5,0.5h80.5  c0.2763672,0,0.5-0.2236328,0.5-0.5V18.6137695C90.75,18.3374023,90.5263672,18.1137695,90.25,18.1137695z M28.0849609,19.1137695  H72v61.7724609H28.0849609V19.1137695z M27.0849609,80.8862305H10.25V19.1137695h16.8349609V80.8862305z M73,19.1137695h16.75  v61.7724609H73V19.1137695z"/>
    </symbol>
    <symbol id="icon-chinese" viewBox="-5.0 -10.0 110.0 135.0">
          <path d="m42.523 47.98c0.80859-0.60547 1.4141-1.1094 2.0195-1.6172 0.70703 0.50391 1.3125 0.91016 2.1211 1.4141-0.30469-0.91016-0.60547-1.7188-0.91016-2.4258 0.70703-0.50391 1.3125-1.0117 2.0195-1.6172h-2.625c-0.30469-0.80859-0.60547-1.5156-0.91016-2.4258-0.30469 0.91016-0.50391 1.7188-0.70703 2.5234-0.80859 0-1.6172 0.10156-2.4258 0.10156v0.10156c0.80859 0.50391 1.5156 0.91016 2.1211 1.4141-0.19531 0.8125-0.39844 1.6211-0.70312 2.5312z"/>
          <path d="m38.484 48.988c-0.60547 0.70703-1.0117 1.3125-1.5156 1.918-0.80859-0.30469-1.5156-0.50391-2.2227-0.80859 0 0 0 0.10156-0.10156 0.10156 0.40234 0.70703 0.91016 1.3125 1.3125 2.0195-0.50391 0.70703-1.0117 1.3125-1.6172 2.0195 0.91016-0.20312 1.7188-0.50391 2.5234-0.70703 0.40234 0.70703 0.80859 1.3125 1.3125 2.0195h0.10156c0-0.80859 0.10156-1.6172 0.10156-2.4258 0.80859-0.20312 1.5156-0.40234 2.3242-0.60547v-0.10156c-0.70703-0.30469-1.5156-0.60547-2.2227-0.91016 0.003906-0.80078 0.003906-1.6094 0.003906-2.5195z"/>
          <path d="m43.938 37.477c0.50391-0.70703 0.80859-1.4141 1.2109-2.1211 0.80859 0.10156 1.6172 0.30469 2.4258 0.40234 0-0.10156 0.10156-0.10156 0.10156-0.20312-0.60547-0.50391-1.2109-1.0117-1.8164-1.5156 0.40234-0.91016 0.80859-1.6172 1.2109-2.2227 0 0-0.10156 0-0.10156-0.10156-0.70703 0.30469-1.4141 0.70703-2.1211 1.0117-0.60547-0.60547-1.1094-1.2109-1.7188-1.7188h-0.10156c0.10156 0.80859 0.20312 1.6172 0.30469 2.4258-0.70703 0.40234-1.4141 0.70703-2.1211 1.1094v0.10156c0.80859 0.10156 1.5156 0.30469 2.3242 0.40234 0.10156 0.8125 0.20312 1.6211 0.40234 2.4297z"/>
          <path d="m36.77 28.184c0.40234 0.70703 0.80859 1.4141 1.3125 2.2227 0.10156-0.91016 0.20312-1.7188 0.30469-2.625 0.80859-0.20312 1.6172-0.40234 2.3242-0.60547v-0.10156c-0.70703-0.30469-1.4141-0.60547-2.2227-0.91016 0.10156-0.80859 0.10156-1.6172 0.20312-2.625-0.60547 0.70703-1.1094 1.3125-1.7188 1.918-0.80859-0.30469-1.5156-0.60547-2.2227-0.91016l-0.10156 0.10156c0.50391 0.60547 0.91016 1.3125 1.3125 2.0195-0.50391 0.60547-1.0117 1.2109-1.7188 2.0195 1.0117-0.20312 1.7188-0.40625 2.5273-0.50391z"/>
          <path d="m12.828 46.465s0.10156 0 0 0c2.1211-1.5156 4.2422-3.0312 6.3633-4.5469 2.1211 1.5156 4.1406 3.0312 6.2617 4.5469l0.10156-0.10156c-0.80859-2.4258-1.6172-4.8477-2.3242-7.2734 2.1211-1.5156 4.1406-3.0312 6.2617-4.5469 0 0 0-0.10156-0.10156-0.10156h-7.6758c-0.80859-2.4258-1.6172-4.9492-2.4258-7.375l-0.097656 0.003906c-0.80859 2.4258-1.6172 4.8477-2.4258 7.375h-7.8789c2.2227 1.6172 4.2422 3.1328 6.3633 4.6445-0.80469 2.5273-1.6133 4.9492-2.4219 7.375z"/>
          <path d="m98.281 15.961h-96.262v66.363h96.262zm-2.0195 64.344h-92.223v-62.324h92.223z"/>
     </symbol>
  </defs>
</svg>