<svg xmlns="http://www.w3.org/2000/svg">
  <defs>
    <symbol id="icon-logo" viewBox="-5.0 -10.0 110.0 135.0">
        <path d="m91.941 50.297c0.007813-0.015625-11.543-20.508-11.543-20.523-0.75391-1.2656-1.6992-2.3477-2.7812-3.2383-1.9727-5.4141-7.3086-8.7656-12.141-7.5234-4.9023 1.2891-7.8984 6.2461-7.2461 11.629-6.4102-4.7109-12.652-3.2109-16.5-1.3438-0.19922-12.461-15.266-14.359-19.609-2.5312-2.2188 1.125-12.512 21.23-14.062 23.512-2.1211 3.1758-3.3789 6.9805-3.375 11.078 0 10.969 8.9219 19.891 19.891 19.891 8.4688 0.039062 15.492-5.3281 18.547-12.578 2.5039-1.1367 5.8906-3.4844 8.6992-2 0.19531 0.10156 5.1133 2.2969 5.1641 2.1328 2.9531 7.2891 10.098 12.445 18.43 12.445 15.684 0.22656 25.422-18.172 16.52-30.953zm-7.25-6.5195c-6.875-3.8867-16.66-2.6562-22.344 2.6289l-1.6641-8.7188c-1.6523-9.9805 11.77-15.02 17.012-6.3477l6.9961 12.434zm-18.426-21.738c2.1211-0.54687 4.4023 0.28125 6.1406 1.9844-2.0898-0.44922-4.3164-0.36328-6.4805 0.34375-1.6484 0.53906-3.1094 1.4219-4.3438 2.5273 0.66797-2.3711 2.3516-4.2461 4.6797-4.8594zm-8.6602 12.105c-0.78906 2.8398 1.707 12.141 2.0977 15.074-0.10938 0.14062-0.21484 0.28125-0.31641 0.42578l-2.3242-1.7109c-4.5391-3.3398-10.723-3.1445-15.039 0.47656l-1.4297 1.1992c-0.097656-0.13281-0.19141-0.26172-0.29297-0.39062l2.0977-10.996c0.32812-1.9023 0.19141-3.8008-0.33203-5.5664 3.5625-2.0547 9.5117-3.8398 15.543 1.4883zm-23.984-12.105c2.2734 0.59375 3.9414 2.4141 4.6367 4.7188-1.1992-1.0391-2.6055-1.8711-4.1875-2.3867-2.1914-0.71875-4.4414-0.79688-6.5508-0.32812 1.7695-1.6836 4.043-2.5312 6.1016-2.0039zm-11.336 9.3398c5.2383-8.7148 18.672-3.6797 17.035 6.2852 0 0-1.668 8.7422-1.668 8.7422-5.6836-5.2852-15.469-6.5156-22.34-2.6328l6.9727-12.398zm2.293 46.75c-9.2461 0-16.766-7.5195-16.766-16.766 0.92188-22.242 32.613-22.238 33.531 0 0 9.2422-7.5195 16.766-16.766 16.766zm28.496-14.32c-2.9297-1.3633-6.207-0.66016-8.9102 0.89844 0.18359-1.0898 0.30469-2.2031 0.30469-3.3438 0-3.2695-0.80859-6.3477-2.2109-9.0742l1.7695-1.4844c3.207-2.6914 7.8047-2.8398 11.18-0.35547l2.5234 1.8594c-1.957 3.7148-2.707 8.4688-1.8477 12.723l-2.8086-1.2266zm22.348 14.32c-9.2422 0-16.766-7.5195-16.766-16.766 0.92188-22.242 32.613-22.234 33.531 0 0 9.2422-7.5195 16.766-16.766 16.766z"/>
        <path d="m23.969 38.605c0.77344 0.33203 1.7109-0.027344 2.0469-0.82812l2.1953-5.1914c0.33594-0.79688-0.035157-1.7109-0.82813-2.0469-0.79297-0.33594-1.7109 0.035157-2.0469 0.82813l-2.1953 5.1914c-0.33594 0.79688 0.035156 1.7109 0.82812 2.0469z"/>
        <path d="m74.789 31.363c-0.80859-1.875-3.6641-0.66797-2.8789 1.2188l2.1953 5.1914c0.25 0.59766 0.82812 0.95312 1.4375 0.95312 1.0898 0.019532 1.8867-1.168 1.4375-2.1719l-2.1953-5.1914z"/>
        <path d="m24.578 47.766c-7.5664 0-13.723 6.1562-13.723 13.727 0.71875 18.191 26.73 18.188 27.449 0 0-7.5664-6.1562-13.727-13.723-13.727zm0 24.324c-5.8438 0-10.598-4.7539-10.598-10.598 0.49609-14.031 20.703-14.027 21.199 0 0 5.8438-4.7539 10.598-10.598 10.598z"/>
        <path d="m75.422 47.766c-7.5664 0-13.723 6.1562-13.723 13.727 0.72266 18.195 26.73 18.188 27.449 0 0-7.5664-6.1562-13.727-13.727-13.727zm0 24.324c-5.8438 0-10.598-4.7539-10.598-10.598 0.49609-14.031 20.703-14.023 21.199 0 0 5.8438-4.7539 10.598-10.602 10.598z"/>
        <path d="m79.758 55.062c-1.6992-1.1328-3.4375 1.4375-1.75 2.5898 1.2773 0.86328 2.043 2.2969 2.043 3.8398 0 0.86328 0.69922 1.5625 1.5625 1.5625s1.5625-0.69922 1.5625-1.5625c0-2.582-1.2773-4.9844-3.418-6.4297z"/>
        <path d="m19.746 55.566c-2.1406 1.4453-3.418 3.8516-3.418 6.4297 0 0.86328 0.69922 1.5625 1.5625 1.5625s1.5625-0.69922 1.5625-1.5625c0-1.543 0.76172-2.9766 2.043-3.8398 1.6875-1.1484-0.046875-3.7227-1.75-2.5898z"/>
        <path d="m50 52.035c-5.8555 0.15234-5.8555 8.7266 0 8.8789 5.8555-0.15234 5.8555-8.7305 0-8.8789zm0 5.7539c-1.7188-0.007812-1.7188-2.6211 0-2.6289 1.7188 0.007813 1.7188 2.6211 0 2.6289z"/>
    </symbol>
    <symbol id="icon-user" viewBox="-5.0 -10.0 110.0 135.0">
      <path d="m50 8.332c-22.977 0-41.668 18.691-41.668 41.668s18.691 41.668 41.668 41.668 41.668-18.691 41.668-41.668-18.691-41.668-41.668-41.668zm-23.41 70.914c4.0156-9.1992 13.234-15.289 23.41-15.289s19.395 6.0898 23.41 15.289c-6.4219 5.1484-14.555 8.2539-23.41 8.2539s-16.988-3.1016-23.41-8.2539zm50.059-2.9023c-3.5391-7.168-9.8438-12.555-17.324-15.035 5.1406-3.1523 8.5898-8.8086 8.5898-15.27 0-9.8789-8.0391-17.918-17.918-17.918s-17.918 8.0352-17.918 17.918c0 6.4609 3.4492 12.117 8.5898 15.27-7.4805 2.4805-13.785 7.8672-17.324 15.035-6.7031-6.7773-10.852-16.082-10.852-26.344 0.007812-20.676 16.832-37.5 37.508-37.5s37.5 16.824 37.5 37.5c0 10.262-4.1484 19.566-10.852 26.344zm-26.648-16.551c-7.582 0-13.75-6.168-13.75-13.754 0-7.582 6.168-13.75 13.75-13.75s13.75 6.168 13.75 13.75c0 7.582-6.168 13.754-13.75 13.754z"/>
    </symbol>
<symbol id="icon-sun" viewBox="-5.0 -10.0 110.0 135.0">
 <path d="m67.523 15.859c0.52344-0.90234 1.6797-1.2109 2.5859-0.6875 0.90234 0.52344 1.2109 1.6797 0.6875 2.5859l-3.8438 6.6484c-0.52344 0.90234-1.6836 1.2109-2.5859 0.6875-0.90234-0.52344-1.2109-1.6836-0.6875-2.5859zm-17.523 9.8867c6.6992 0 12.762 2.7148 17.152 7.1055 4.3906 4.3906 7.1055 10.453 7.1055 17.152 0 6.6992-2.7148 12.762-7.1055 17.152s-10.453 7.1055-17.152 7.1055c-6.6953 0-12.762-2.7148-17.152-7.1055s-7.1055-10.453-7.1055-17.152c0-6.6992 2.7148-12.762 7.1055-17.152 4.3906-4.3906 10.453-7.1055 17.152-7.1055zm14.469 9.7852c-3.7031-3.7031-8.8164-5.9922-14.469-5.9922-5.6484 0-10.766 2.2891-14.469 5.9922s-5.9922 8.8164-5.9922 14.469 2.2891 10.766 5.9922 14.469 8.8164 5.9922 14.469 5.9922 10.766-2.2891 14.469-5.9922 5.9922-8.8164 5.9922-14.469-2.2891-10.766-5.9922-14.469zm-16.363-27.461c0-1.0469 0.84766-1.8984 1.8984-1.8984 1.0469 0 1.8984 0.84766 1.8984 1.8984v11.293c0 1.0469-0.84766 1.8984-1.8984 1.8984-1.0469 0-1.8984-0.84766-1.8984-1.8984zm-18.902 9.6875c-0.52344-0.90234-0.21484-2.0625 0.6875-2.5859 0.90625-0.52344 2.0625-0.21484 2.5859 0.6875l3.8438 6.6484c0.52344 0.90234 0.21484 2.0625-0.6875 2.5859-0.90234 0.52344-2.0625 0.21484-2.5859-0.6875zm-16.469 12.914c-0.90625-0.52344-1.2109-1.6797-0.6875-2.5859 0.52344-0.90234 1.6797-1.2109 2.5859-0.6875l9.7734 5.6523c0.90625 0.52344 1.2109 1.6797 0.6875 2.5859-0.52344 0.90234-1.6797 1.2109-2.5859 0.6875zm-1.0508 21.223c-1.0469 0-1.8984-0.84766-1.8984-1.8984 0-1.0469 0.84766-1.8984 1.8984-1.8984h7.6797c1.0469 0 1.8984 0.84766 1.8984 1.8984 0 1.0469-0.84766 1.8984-1.8984 1.8984zm2.9492 20.711c-0.90234 0.52344-2.0625 0.21484-2.5859-0.6875-0.52344-0.90234-0.21484-2.0625 0.6875-2.5859l9.7734-5.6523c0.90234-0.52344 2.0625-0.21484 2.5859 0.6875 0.52344 0.90625 0.21484 2.0625-0.6875 2.5859zm17.844 11.535c-0.52344 0.90625-1.6836 1.2109-2.5859 0.6875s-1.2109-1.6797-0.6875-2.5859l3.8438-6.6484c0.52344-0.90234 1.6797-1.2109 2.5859-0.6875 0.90234 0.52344 1.2109 1.6836 0.6875 2.5859zm19.422 7.7891c0 1.0469-0.84766 1.8984-1.8984 1.8984-1.0469 0-1.8984-0.84766-1.8984-1.8984l0.003907-11.293c0-1.0469 0.84766-1.8984 1.8984-1.8984 1.0469 0 1.8984 0.84766 1.8984 1.8984zm18.898-9.6875c0.52344 0.90234 0.21484 2.0625-0.6875 2.5859s-2.0625 0.21484-2.5859-0.6875l-3.8438-6.6484c-0.52344-0.90234-0.21484-2.0625 0.6875-2.5859 0.90234-0.52344 2.0625-0.21484 2.5859 0.6875zm16.469-12.914c0.90234 0.52344 1.2109 1.6797 0.6875 2.5859-0.52344 0.90234-1.6797 1.2109-2.5859 0.6875l-9.7734-5.6523c-0.90234-0.52344-1.2109-1.6797-0.6875-2.5859s1.6797-1.2109 2.5859-0.6875zm1.0508-21.227c1.0469 0 1.8984 0.84766 1.8984 1.8984 0 1.0469-0.84766 1.8984-1.8984 1.8984h-7.6797c-1.0469 0-1.8984-0.84766-1.8984-1.8984 0-1.0469 0.84766-1.8984 1.8984-1.8984zm-2.9492-20.707c0.90625-0.52344 2.0625-0.21484 2.5859 0.6875 0.52344 0.90625 0.21484 2.0625-0.6875 2.5859l-9.7773 5.6523c-0.90234 0.52344-2.0625 0.21484-2.5859-0.6875-0.52344-0.90234-0.21484-2.0625 0.6875-2.5859z""/>
</symbol>
<symbol id="icon-moon" viewBox="-5.0 -10.0 110.0 135.0">
 <path d="m87.957 56.25c-1.1875-0.71094-2.7031-0.53906-3.707 0.41797-5.4141 4.9414-12.664 7.3672-19.965 6.6758-7.2969-0.6875-13.969-4.4258-18.363-10.289-4.3984-5.8672-6.1133-13.316-4.7266-20.516 1.3867-7.1992 5.75-13.477 12.012-17.289 1.1797-0.71484 1.7461-2.1172 1.4023-3.4531-0.34766-1.332-1.5234-2.2852-2.9023-2.3398h-1.707c-10.211-0.007812-20.051 3.832-27.559 10.75-7.5117 6.9219-12.141 16.414-12.965 26.59-0.82422 10.18 2.2109 20.293 8.5078 28.332 6.2969 8.043 15.387 13.414 25.465 15.055 10.082 1.6367 20.406-0.58203 28.926-6.2109 8.5156-5.6328 14.602-14.266 17.043-24.18 0.37891-1.375-0.22266-2.832-1.4609-3.543z"/>
</symbol>
  </defs>
</svg>