<svg xmlns="http://www.w3.org/2000/svg" version="1.1" viewBox="-5.0 -10.0 110.0 135.0">
 <path d="m50 8.332c-22.977 0-41.668 18.691-41.668 41.668s18.691 41.668 41.668 41.668 41.668-18.691 41.668-41.668-18.691-41.668-41.668-41.668zm-23.41 70.914c4.0156-9.1992 13.234-15.289 23.41-15.289s19.395 6.0898 23.41 15.289c-6.4219 5.1484-14.555 8.2539-23.41 8.2539s-16.988-3.1016-23.41-8.2539zm50.059-2.9023c-3.5391-7.168-9.8438-12.555-17.324-15.035 5.1406-3.1523 8.5898-8.8086 8.5898-15.27 0-9.8789-8.0391-17.918-17.918-17.918s-17.918 8.0352-17.918 17.918c0 6.4609 3.4492 12.117 8.5898 15.27-7.4805 2.4805-13.785 7.8672-17.324 15.035-6.7031-6.7773-10.852-16.082-10.852-26.344 0.007812-20.676 16.832-37.5 37.508-37.5s37.5 16.824 37.5 37.5c0 10.262-4.1484 19.566-10.852 26.344zm-26.648-16.551c-7.582 0-13.75-6.168-13.75-13.754 0-7.582 6.168-13.75 13.75-13.75s13.75 6.168 13.75 13.75c0 7.582-6.168 13.754-13.75 13.754z"/>
<text x="0.0" y="117.5" font-size="5.0" font-weight="bold" font-family="Arbeit Regular, Helvetica, Arial-Unicode, Arial, Sans-serif" fill="#000000">Created by kumakamu</text><text x="0.0" y="122.5" font-size="5.0" font-weight="bold" font-family="Arbeit Regular, Helvetica, Arial-Unicode, Arial, Sans-serif" fill="#000000">from Noun Project</text></svg>