<svg xmlns="http://www.w3.org/2000/svg" xmlns:xlink="http://www.w3.org/1999/xlink" version="1.1" x="0px" y="0px" viewBox="0 0 100 125" enable-background="new 0 0 100 100" xml:space="preserve"><g><g><path d="M90.719,18.227H9.281c-0.829,0-1.5,0.672-1.5,1.5v60.557c0,0.828,0.671,1.5,1.5,1.5h81.438c0.829,0,1.5-0.672,1.5-1.5    V19.727C92.219,18.898,91.547,18.227,90.719,18.227z M89.219,21.396v7.092H10.781v-7.092H89.219z M10.781,38.412v-6.924h78.438    v6.924H10.781z M89.219,41.412v17.186H10.781V41.412H89.219z M10.781,61.598h78.438v6.838H10.781V61.598z M10.781,78.783v-7.348    h78.438v7.348H10.781z"/></g></g><text x="0" y="115" fill="#000000" font-size="5px" font-weight="bold" font-family="'Helvetica Neue', Helvetica, Arial-Unicode, Arial, Sans-serif">Created by Linseed Studio</text><text x="0" y="120" fill="#000000" font-size="5px" font-weight="bold" font-family="'Helvetica Neue', Helvetica, Arial-Unicode, Arial, Sans-serif">from the Noun Project</text></svg>